<?xml version="1.0"?>
<!--
************* Copyright (c) 2017 Pareto Softare, LLC DBA Simplemaps.com *******************		
************* Free for Commercial Use, full terms at  http://simplemaps.com/resources/svg-license ************
************* Attribution is appreciated! http://simplemaps.com ***************************
-->
<svg baseprofile="tiny" fill="#7c7c7c" height="1228" stroke="#000000" stroke-linecap="round" stroke-linejoin="round" stroke-width="1" version="1.2" viewbox="0 0 1000 1228" width="1000" xmlns="http://www.w3.org/2000/svg">
 <path d="M987.5 577l-25.1 12.4-8.5 7.3-4.9 10.5-2.9 10.9-4.2 8.9-5.6 8-21.6 23.9-10.5 5.1-2.6 2.7-0.8 3.3 0.9 7.1-0.6 2.9-2.9 3-2.4 0.2-2.5-0.3-3.2 1.3-5.3 5.7-2.3 6.5-2.6 14.5-3.3 7.8-14 21.1-3.9 9.4-2.7 4.1-6.6 3.3 0 2.5 0.6 3.1-0.3 3-45.5 74.6-3.4 3.5-4.4 2.2-2.7-0.1-2.6-0.5-4.2 0.8-6.6 5.8-6.8 16.1-12.1 8.7-2.2 6.7 0.2 7.6 3.2 14.6-0.5 2.5-21.3 39.1-1.9 5.1 1.4 4 2.4 3.4 0.5 2.7-4.4 2.3-3.7 1.3-2.8 1.8-2.3 2.4-2.3 3.1-26.2 59-2.1 10.3-1.2 2.6-2.7 1.9-6.9 2.5-1.4 1.6 1.2 3.7 5.5 8.3 1.3 3.9-0.5 4.5-1.5 2.6-1.9 2.1-1.8 3-7.2 15.4-9.7 13.9-12.4 11-7.1 13.6-4.5 5.9-5.8 4.7-37.7 22.7-14.5 5.8-5.8 4.7-4.1 7.9-2.7 7.7-2.1 3-3.6 3.2-2 0.7-3.7-1-1.6 0.3-1.8 1.6-3 4-2.2 1.3-7.1 0.6-12.9-2.9-14.1-1.5-10.5-8.6-7.1-2.5-6.3 0-40.6 7.7-5.3 0.3-3.7-3.2 2.5-5 6-4.8 6.6-2.4 0.2-3.2-21.3-17.8-8.5-11.7-2.8-2.4-4.4-1.4-1.6 0.7-0.8 2-9.2 11.5-4 2.9-11.8 4.4-12.3 9.1-3.8 1.6-12.8 0.6-6.9 1.8-5.2-1.6-10.6-6.3-5.5-1.2-11.5-0.4-5.6-1.1-22.6-9.7-9.7-0.4-2.2-1.4 0.1-2.3 3.5-6.5 0.2-3.5-3.7-5.2-5.6-1.4-6.2 1.6-5.9 3.4-3.7 4.5-3.1 5.7-3.3 4.5-4.2 1.2-7.9 0.6-4.2 4.8-3.1 5.7-4.3 3.1-6.8-0.5-3.8-1.2-1.6 1.7-0.4 8.2-2.5 6.1-5.9 4.3-14.2 5-1.9 1.3-3.3 3.4-2.2 0.6-1.8-0.6-3.4-2.4-1.7-0.4-7 0.1-2.5 1.6-2.5 4.8-4.8 14-4.4 4.6-7.9 1.2-4.4-1.3-3.1-2.4-10.5-13.4-2-0.5-5.3 0.5-6.6 1.4-5.6 1.9-5.8 1.2-16.9-2.3-3-0.8-4.1-2.2-8.7-8.2-4.4-2.8-2.2-0.4-2.5 0.5-4.9-0.3-3-0.9-5.3-2.5-2.3-0.7-14.4-1.6-5.3-2.9-6.4-7-11.5-8.5-1.1-3.6 7.6-1.1-6-5.9-6.9-5-7.9-3.2-9.1-0.6 5.4-6.6 4.9-0.8 11.3 3.4 6.6-0.7 3.8-2.9 9-23 3.4-1.9 3.6-2 7.4-0.1 5.1-0.7 4-1.6 16.1-16.2 5.5-8.1 13.1-33.2 11.8-24.1 24.5-33.1 2.6-5.2 5.4-15.7 2.2-2.8 4.1-2.2-4.5-3.6-2.1-2.3-0.6-2.2 0.3-3.6 1.2-3.8 4.6-6.8 1.1-2 2.4-10.3-0.2-4.7-1.8-0.5-3.7-4.2-1.8-4.7 3.9-2.3 1.5-2.1-0.6-4.7-2-8.2-0.8-0.9-3.1-2.2-0.7-0.3 0.7-1.8 1.5-1.2 1.5-0.8 0.9-0.8 0.7-7.1-0.8-7.6-3.6-4.9-7.8 1.2 6.9-17.1 4.7-7.6 12.3-14.9 8.7-13.6 11.2-8.1 0.2-0.2 3.6-5.8 2.3-6.6 0.8-5.9 1.6-4.6 12.2-12.7 5.5-13.5-1.1-25.5 2.7-14.1 2.7-7.7 0.5-5.1-2-4.3-4.8-4.8-3-1.2-3.5 0.6-3.7 1.1-3.6 0.6-0.2-2-7.9-12-6.9-23.9-3.4-3.7-7-10.4-3.6-2.3-11.4-3.4-3.9-1.8-1.9-1.2-3.4-4.1-3.2-6.6-2.6-4-1.1 0.2-1.5-2.9-6.3-3.4-8.3-15.6-2.3-2.3-4.7-3.8-2.2-3.1-3.6-11.7-2.1-3.3-11.5-10.3-3.2-5.7-0.5-8.4 1.4-5.2 4.5-11.7 1-5-1.3-7-3.5-2.8-11.3-3-4.1-2.8-4-4.6-1.3-5.8 3.7-6.3 2.1-5.8-0.3-8.5-3-14.6-10.2-21.4-5.9-36.4 1-8.6 6.7-12.3 1.5-5.8 0-13.9-0.6-3.9-4.2-11-0.2-8.3 1.1-6.5-0.1-5.7-4-6.3-3.2-1.8-3.5-1-2.7-1.8-1.1-4.6 0-41.7-2.2-4.7-0.5-3.5 1.5-3.3 9-6.3 1.5-1.8 0.7-5-2.9-13.4 0.9-5.9 2.1-5.3 6.2-9.8 18.3-20.8 1.2-2.1 0.8-3.8 1.5-2.1 5.1-3.7 2.2-2.3 3.9-13.5 3.8-5.4 3.2-4.6 14.2-14.6 26.4-19.1 6.6-7.7 11.2-3.9 10.4-7.2 8.9-9 6.5-9.7 9.4-23.3 6.7-11.9 2-5.9 5.1-34.9 6-10.4 6.6-11.5 3.4-6.3 3.5 0 14.9 2.2 10.4 1.5 7.8 3.3 6.7 2.8 2.5 0.3-1-1.9-7.1-3.8 2.7-0.5 4.7 0.7 11.3 5.8 9 5.9 5.9 4.2 6 3.3 6.4 3.7 38.1 15.4 11.9 6.1 10 6.5 7.5 2.9 4.5 0.9 11.3 2.9 13.6-0.3 24 6 11.3 2.9 8.5-0.9 4.6 2.8 5.4 6.8 6 4.9 7.4-2.4 0.1-4-5.9-1-6.3-4.3-7-5.4-6-1.5-2.3 0.4-0.7-1.9 3.5-2.5 3.2 0.6 6.7 3.9 10.2 4.2 14.7 4 7.5 3.5 8.4 3.2 16.1 11 12.2 4.2 13.6 3 1.5-2.7 2.3 0.4 9.9 4.6 23.1 13 22.7 21.5 15.4 8.5 10.2 16.7 24.1 19.3 47.2 44.3 3.7 1.9 1.3 0.9-0.2 2.1-0.4 2.3 0.4 1.4 1.6 0.3 4.1-0.6 1.6 0.3 8.5 4.7 26.1 22.3 7.5 12.5-3.1 13.8 6.2-3.8 8.6-12.1 7.2-2.6 8 1.9 7 4.7 5 6.3 1.9 6.7-6 11.2-12.3 16.4-10.1 16.8 0.9 12.3 2 0 0.9-4.6 2.4-3.3 2.5-2.4 1.1-2.2 1.8-8.6 2.8-8.8 4.9-5.5 14.4-9 3.7-6.5 6.2 3 6.9 5.7 5.7 6.9 2.3 6.5 3.3 4.9 22 12.6 11.4 9.4 12 12.4 9.5 14 3.8 13.8 1.8 13.5 7.9 26.1 1.8 13.5-3.7 15.4-9 7.6-10.6 6.4-8.9 11.2 20.5-6.4 11.5-6.1 5-7.2 0.7-3.4 3.2-9.2 0.7-6-2.9-48.4 2-12 5.5-10 4.3-3 5.1-1.1 5.5 1 5.6 3.1 15.7 14.5 2.8 3.9-2.6 3.9 9.2 12.7 2.8 7.8 0.6 7.7 1.8 9.6 3.6 6.9 5.5 0-0.7 3.2-1.5 2.5-1.6 1.5-0.8-0.2 0.3 2.6 1.8 5.3 2.5 4.6 5.7 1.4 5.6 0.8 2.5 2.7-1.4 4.7-3 2.5-3.1 3.3-1.5 6.8 0.7 5.9 2.1 5.3 13.2 19.7 4.2 8.4 2 9.2 0.6 12.7-1.2 10.2-6.6 20.7-3.7 7.2z" id="FRA2000" name="Guyane française">
 </path>
 <circle cx="687.7" cy="241.5" id="0">
 </circle>
 <circle cx="768.9" cy="364.4" id="1">
 </circle>
 <circle cx="742.2" cy="400.9" id="2">
 </circle>
</svg>