<?xml version="1.0" encoding="UTF-8"?><!-- Philippines -->
<svg xmlns="http://www.w3.org/2000/svg" xmlns:xlink="http://www.w3.org/1999/xlink" height="450" width="675" version="1.1"><rect style="fill:#0038a8" y="0" x="0" height="450" width="675"/><rect style="fill:#ce1126" y="225" x="0" height="225" width="675"/><path style="fill:#fff" d="M 292.28357,224.99982 0,450.00002 0,-1.9e-4"/><g><g transform="matrix(3.7500017,0,0,3.7500017,-2.2364189e-4,56.249787)"><circle style="fill:#fcd116" transform="translate(28,45)" r="9" cy="0" cx="0"/><g style="fill:#fcd116" id="d" transform="translate(28,45)"><g id="c"><g id="b"><path transform="scale(19,19)" d="M -1,0 -0.93848823,0.06151177 0,0 -0.93848823,-0.06151177 z"/><path id="a" transform="scale(19.238092,19.238092)" d="m -0.88366349,0.11633651 0.0495742,0.0495742 L 0,0 z"/><use xlink:href="#a" height="90" width="180" y="0" x="0" transform="scale(1,-1)"/></g><use xlink:href="#b" height="90" width="180" y="0" x="0" transform="matrix(0.70710678,0.70710678,-0.70710678,0.70710678,0,0)"/></g><use xlink:href="#c" height="90" width="180" y="0" x="0" transform="matrix(0,1,-1,0,0,0)"/></g><use xlink:href="#d" height="90" width="180" y="0" x="0" style="fill:#fcd116" transform="matrix(-1,0,0,-1,56,90)"/></g><g style="fill:#fcd116" id="f" transform="matrix(3.7500017,0,0,3.7500017,239.78345,224.99986)"><path id="e" d="M 5,0 1.618034,1.175571 1.545085,4.755283 -0.618034,1.902113 -4.045085,2.938926 -2,0 z"/><use xlink:href="#e" height="90" width="180" y="0" x="0" transform="scale(1,-1)"/></g><use xlink:href="#f" height="90" width="180" y="0" x="0" style="fill:#fcd116" transform="matrix(-0.5,0.8660254,-0.8660254,-0.5,340.99712,295.31261)"/><use xlink:href="#f" height="90" width="180" y="0" x="0" style="fill:#fcd116" transform="matrix(-0.5,-0.8660254,0.8660254,-0.5,-48.714088,379.68723)"/></g></svg>