<svg xmlns="http://www.w3.org/2000/svg" height="450" width="675" xmlns:xlink="http://www.w3.org/1999/xlink" viewBox="0 0 823.5 549"><!-- Belarus --><rect height="549" width="823.5" y="0" x="0" fill="#c8313e"/><rect height="183" width="823.5" y="366" x="0" fill="#4aa657"/><rect height="549" width="122" y="0" x="0" fill="#ffffff"/><g id="h"><g id="q" fill-rule="evenodd" fill="#c8313e" transform="scale(5.3043478,9)"><path id="path14" d="m4,0h3v1h1v1h1v1h1v1h1v1h-1v1h-1v1h-1v1h-1v1h-1v1h-1v-1h-1v-1h-1v-1h-1v-1h-1v-1h-1v-1h1v-1h1v-1h1v-1h1zm1,2h1v1h1v1h1v1h-1v1h-1v1h-1v-1h-1v-1h-1v-1h1v-1h1zm0,2h1v1h-1zm-5-3h1v1h-1zm0,6h1v1h-1zm11-7h0.6v2h-0.6zm0,7h0.6v2h-0.6zm-9,2h1v1h1v1h1v1h-1v1h-1v1h-1v-1h-1v-1h-1v-1h1v-1h1zm0,2h1v1h-1zm6-2h1v1h1v1h1v1h-1v1h-1v1h-1v-1h-1v-1h-1v-1h1v-1h1zm0,2h1v1h-1zm-8,4h1v1h-1zm11-1h0.6v2h-0.6z"/><path id="path16" d="m0,18h1v-1h1v-1h1v-1h1v-1h1v-1h1v1h1v1h1v1h1v1h1v1h1v1h0.6v4h-0.6v1h-1v1h-1v1h-1v1h-1v1h-1v2.6h-2v-0.6h-1v-1h-1v-1h-1v-1h-1v-3h1v1h1v1h1v1h1v-1h1v-1h1v-1h1v-1h1v-1h1v-1h-1v-1h-1v-1h-3v1h2v1h-1v1h-1v1h-1v-1h-1v-1h-1v-1h-1zm0,4h1v1h-1zm11,3h0.6v1h-0.6zm-2,2h1v1h1v1h0.6v1.6h-0.6v-0.6h-1v-1h-1zm-2,3h1v0.6h-1z"/></g><use xlink:href="#q" transform="matrix(-1,0,0,1,122,0)" height="549" width="1098" y="0" x="0"/></g><use xlink:href="#h" transform="matrix(1,0,0,-1,0,549)" height="549" width="1098" y="0" x="0"/></svg>