<?xml version="1.0" encoding="UTF-8"?><!-- Liberia -->
<svg xmlns="http://www.w3.org/2000/svg" width="900" height="600"><path fill="#bf0a30" d="M0 0h900v600H0V0z"/><path fill="#fff" d="M0 54.55h900v54.54H0v54.54h900v54.54l-900-.2v54.75h900v54.54H0V54.55zm0 327.27h900v54.54H0v-54.54zm0 109.1h900v54.53H0V490.9z"/><path fill="#002868" d="M0 0h272.73v272.73H0z"/><path fill="#fff" d="M88.26 202.57l48.12-34.9 48.14 35L166.1 146l48.1-34.92h-59.46l-18.36-56.55-18.4 56.52-59.45.03 48.1 34.92-18.37 56.57z"/></svg>