<svg xmlns="http://www.w3.org/2000/svg" height="450" width="675" xmlns:xlink="http://www.w3.org/1999/xlink" viewBox="0 0 225 150"><clipPath id="c"><!-- Kyrgyzstan --><circle cy="0" cx="0" r="25"/></clipPath><rect height="150" width="225" y="0" x="0" fill="#e8112d"/><g transform="translate(112.5,75)"><g id="r20" transform="scale(0.25,0.25)"><g id="r4"><path id="r1" fill="#ffef00" d="M-8.4,108c8.4,22-9.6,56,8.4,72-6-24,14-50,8.4-72s-25.2-22-16.8,0z"/><use xlink:href="#r1" transform="matrix(0,1,-1,0,0,0)" height="150" width="250" y="0" x="0"/><use xlink:href="#r1" transform="scale(-1,-1)" height="150" width="250" y="0" x="0"/><use xlink:href="#r1" transform="matrix(0,-1,1,0,0,0)" height="150" width="250" y="0" x="0"/></g><use xlink:href="#r4" transform="matrix(0.95105652,0.30901699,-0.30901699,0.95105652,0,0)" height="150" width="250" y="0" x="0"/><use xlink:href="#r4" transform="matrix(0.80901699,0.58778525,-0.58778525,0.80901699,0,0)" height="150" width="250" y="0" x="0"/><use xlink:href="#r4" transform="matrix(0.58778525,0.80901699,-0.80901699,0.58778525,0,0)" height="150" width="250" y="0" x="0"/><use xlink:href="#r4" transform="matrix(0.30901699,0.95105652,-0.95105652,0.30901699,0,0)" height="150" width="250" y="0" x="0"/></g><use xlink:href="#r20" transform="matrix(0.98768834,0.15643447,-0.15643447,0.98768834,0,0)" height="150" width="250" y="0" x="0"/><circle d="M 27,0 C 27,14.911688 14.911688,27 0,27 -14.911688,27 -27,14.911688 -27,0 c 0,-14.911688 12.088312,-27 27,-27 14.911688,0 27,12.088312 27,27 z" cy="0" cx="0" r="27" fill="#e8112d"/><circle d="M 22.5,-1.5 C 22.5,10.926407 12.426407,21 0,21 -12.426407,21 -22.5,10.926407 -22.5,-1.5 -22.5,-13.926407 -12.426407,-24 0,-24 c 12.426407,0 22.5,10.073593 22.5,22.5 z" cy="-1.5" cx="0" r="22.5" fill="#ffef00"/><g id="x" fill="#e8112d" clip-path="url(#c)"><path d="m-20.125,18a34.825,34.825,0,1,1,69.65,0h0.961a33.986,33.986,0,1,0,-67.972,0z"/><path d="m-15.773,18a33.473,33.473,0,1,1,66.946,0h1.102a32.775,32.775,0,1,0,-65.55,0z"/><path d="m20.7-14.361a32.361,32.361,0,1,0,0,64.722l1.8-0.541a31.82,31.82,0,1,1,0,-63.64z"/></g><use xlink:href="#x" transform="scale(-1,1)" height="150" width="250" y="0" x="0"/></g></svg>