<?xml version="1.0" encoding="UTF-8"?><!-- Grenada -->
<svg xmlns="http://www.w3.org/2000/svg" width="540" height="360" xmlns:xlink="http://www.w3.org/1999/xlink" viewBox="0 0 450 300" version="1"><defs><g id="c"><g id="b"><path id="a" fill="#fcd116" d="M0-1l-.3.95.47.16"/><use width="500" height="300" xlink:href="#a" transform="scale(-1 1)"/></g><use width="500" height="300" xlink:href="#b" transform="rotate(72)"/><use width="500" height="300" xlink:href="#b" transform="matrix(-.809 .588 -.588 -.809 0 0)"/><use width="500" height="300" xlink:href="#b" transform="matrix(-.809 -.588 .588 -.809 0 0)"/><use width="500" height="300" xlink:href="#b" transform="rotate(-72)"/></g></defs><path fill="#ce1126" d="M0 0h450v300H0z"/><path fill="#007a5e" d="M29.5 42h391v216h-391z"/><path fill="#fcd116" d="M29.5 42h391l-391 216h391z"/><circle cx="250" cy="150" r="36" fill="#ce1126" transform="translate(-25)"/><use width="500" height="300" xlink:href="#c" transform="matrix(33 0 0 33 225 150)"/><use width="500" height="300" x="-100" xlink:href="#d"/><use id="d" width="500" height="300" xlink:href="#c" transform="matrix(19.5 0 0 19.5 225 21)"/><use width="500" height="300" x="100" xlink:href="#d"/><use width="500" height="300" x="-100" y="258" xlink:href="#d"/><use width="500" height="300" y="258" xlink:href="#d"/><use width="500" height="300" x="100" y="258" xlink:href="#d"/><path fill="#ce1126" d="M55.25 150.4c4.5 8.4 13.26 17.53 20.9 20.74.14-8.52-2.9-19.44-7.02-28.14l-13.88 7.4z"/><path fill="#fcd116" d="M47.6 121.63c6.54 13.6-16.92 46.08 22.17 53.7-4.82-6.6-7.93-17.45-6.76-26.17 8.2 3.12 16.84 12.25 20.33 19.23 10.23-37.16-26.24-34.9-35.72-46.77z"/></svg>