<?xml version="1.0" encoding="UTF-8"?>
<!-- 
     Australia     
-->
<svg xmlns="http://www.w3.org/2000/svg" xmlns:xlink="http://www.w3.org/1999/xlink" viewBox="0 0 22680 15120" height="640" width="960" version="1.1"><defs><polygon id="a" points="3.905 8.109 0 4 -3.905 8.109 -3.127 2.494 -8.774 2.003 -3.9 -.89 -7.036 -5.611 -1.736 -3.604 0 -9 0 -9 1.736 -3.604 7.036 -5.611 3.9 -.89 8.774 2.003 3.127 2.494"/><polygon id="b" points="-5.29 7.281 -3.804 1.236 -8.56 -2.781 -2.351 -3.236 0 -9 0 -9 2.351 -3.236 8.56 -2.781 3.804 1.236 5.29 7.281 0 4"/></defs><path d="m 0,0 22680,0 0,15120 L 0,15120 0,0 z" fill="#00008b"/><use xlink:href="#a" height="15120" width="30240" y="0" x="0" transform="matrix(252 0 0 252 5670 11340)" fill="#fff"/><use xlink:href="#a" height="15120" width="30240" y="0" x="0" transform="matrix(120 0 0 120 17010 12600)" fill="#fff"/><use xlink:href="#a" height="15120" width="30240" y="0" x="0" transform="matrix(120 0 0 120 13230 6615)" fill="#fff"/><use xlink:href="#a" height="15120" width="30240" y="0" x="0" transform="matrix(120 0 0 120 17010 2520)" fill="#fff"/><use xlink:href="#a" height="15120" width="30240" y="0" x="0" transform="matrix(120 0 0 120 20370 5607)" fill="#fff"/><use xlink:href="#b" height="15120" width="30240" y="0" x="0" transform="matrix(70 0 0 70 18522 8190)" fill="#fff"/><path d="m 4725,0 1890,0 0,2520 4725,0 0,2520 -4725,0 0,2520 -1890,0 0,-2520 -4725,0 0,-2520 4725,0 0,-2520 z" fill="#fff"/><path id="c" d="M 0,0 1267.8505,0 11340,6714.7663 11340,7560 10072.15,7560 0,845.2337 0,0 z" fill="#fff"/><use xlink:href="#c" height="15120" width="30240" y="0" x="0" transform="matrix(-1 0 0 1 11340 0)" fill="#fff"/><path d="m 5103,0 1134,0 0,3024 5103,0 0,1512 -5103,0 0,3024 -1134,0 0,-3024 -5103,0 0,-1512 5103,0 0,-3024 z" fill="red"/><path id="d" d="m 0,0 3780,2520 -845.2337,0 L 0,563.48913 0,0 z m 11340,0 -845.233,0 -3780,2520 L 7560,2520 11340,0 z" fill="red"/><use xlink:href="#d" height="15120" width="30240" y="0" x="0" transform="rotate(180 5670 3780)" fill="red"/></svg>