<?xml version="1.0" encoding="UTF-8"?>
<!-- Comoros -->
<svg xmlns="http://www.w3.org/2000/svg" xmlns:xlink="http://www.w3.org/1999/xlink" height="600" width="900" version="1"><rect style="fill:#ffc61e" y="0" x="0" height="600" width="900"/><rect style="fill:#fff" y="150" x="0" height="450" width="900"/><rect style="fill:#ce1126" y="300" x="0" height="300" width="900"/><rect style="fill:#3a75c4" y="450" x="0" height="150" width="900"/><path style="fill:#3d8e33" d="M 0,600 450,300 0,0 l 0,600 0,0 z"/><path style="fill:#fff" d="m 274.50002,299.99996 c 0,67.10262 -54.3974,121.50002 -121.50001,121.50002 -67.102614,0 -121.500022,-54.3974 -121.500022,-121.50002 0,-67.1026 54.397408,-121.5 121.500022,-121.5 67.10261,0 121.50001,54.3974 121.50001,121.5 z"/><path style="fill:#3d8e33" d="m 328.5,300 c 0,67.10258 -54.39738,121.49998 -121.5,121.49998 -67.1026,0 -121.500012,-54.3974 -121.500012,-121.50002 0,-67.1026 54.397412,-121.5 121.500012,-121.5 67.10262,0 121.50002,54.3974 121.50002,121.5 l 1.6e-4,0 0,4e-5 -1.8e-4,0 z"/><use xlink:href="#a" height="300" width="500" y="0" x="0" transform="translate(0,173.925)"/><path style="fill:#fff" id="a" d="m 158.60239,206.085 16.34776,0 5.04983,-15.5475 5.04983,15.5475 16.34779,0 -13.22373,9.6075 5.04985,15.5475 -13.22374,-9.60752 -13.2237,9.60752 5.04983,-15.5475 -13.22372,-9.6075 z"/><use xlink:href="#a" height="300" width="500" y="0" x="0" transform="translate(0,57.97494)"/><use xlink:href="#a" height="300" width="500" y="0" x="0" transform="translate(0,115.94988)"/></svg>