<?xml version="1.0" encoding="UTF-8"?><!-- PapuaNewGuinea -->
<svg xmlns="http://www.w3.org/2000/svg" xmlns:xlink="http://www.w3.org/1999/xlink" height="450" width="675" version="1.1"><g transform="translate(0,-602.36218)"><rect style="fill:#000" y="602.362" x="0" height="450" width="675"/><g style="fill:#fff" transform="matrix(0.78125,0,0,0.78125,0,602.36217)"><path d="M 220.254,418.599 231.709,381.748 243.164,419 213,396.168 h 37.418 z"/><path id="a" d="m 192.418,178.496 -22.909,73.702 60.327,-44.862 H 155 L 215.327,253 z"/><use xlink:href="#a" height="576" width="768" y="112.504" x="-88"/><use xlink:href="#a" height="576" width="768" y="104.504" x="87.582"/><use xlink:href="#a" height="576" width="768" y="264.504" x="0"/></g><path style="fill:#ce1126" d="M 0,602.36216 H 675 V 1052.3622 z"/><path style="fill:#fcd116" d="m 446.4724,733.10708 c -4.43142,5.7238 -14.91797,-5.7575 -27.48047,-6.0198 -12.5625,-0.2622 -21.46146,12.0388 -25.125,16.2268 -3.66354,4.1881 -15.44088,26.1717 -15.17943,28.5271 0.26146,2.3555 7.32865,-6.5427 9.94558,-8.113 0.26145,3.1406 -2.87917,6.805 -2.09402,7.8516 0.78516,1.0466 9.15964,-6.2813 12.03881,-6.5427 0.78515,2.094 -1.57032,4.1872 -0.78516,7.3278 1.0474,1.0466 5.75834,-5.2346 8.89896,-6.5427 0.52292,2.3555 -2.87917,6.805 -1.0474,9.6834 1.30886,0.2614 9.15964,-8.8982 11.77735,-9.9456 2.61771,-1.0474 -1.30886,8.6367 0,9.4219 2.35547,-1.5704 9.68411,-9.9456 12.03958,-10.9922 2.35547,-1.0466 -0.26146,10.7307 0.78516,10.7307 2.87838,-2.094 10.20703,-12.0388 10.99219,-13.6091 0.78515,-1.5703 -0.78516,15.1794 7.32786,24.0784 8.11302,8.8989 20.41485,19.1052 21.72292,19.1052 1.57031,-2.8792 -0.52292,-8.8982 0.78515,-8.6367 3.66354,3.9257 10.46849,9.6833 12.0388,9.6833 1.57031,0 -1.0474,-6.2813 1.04662,-6.2813 4.18802,3.9258 16.22682,19.3675 39.78151,26.4339 -1.57032,-4.4495 -4.97318,-8.3753 -5.23464,-10.4685 1.57032,0.2615 7.06719,2.8792 8.11381,2.6169 1.04661,-0.2622 -11.51589,-15.7031 -10.73074,-17.7971 2.87918,-0.2615 4.18803,1.5703 5.23464,0.2615 -1.30885,-2.0933 -12.30104,-14.3943 -12.30104,-17.2735 0,-2.8792 3.40286,0.5237 4.44948,0 1.04661,-0.5237 -4.18724,-11.5159 -3.14062,-12.8239 1.04661,-1.3081 12.56171,7.0664 15.44088,7.0664 2.87916,0 0.78516,-10.2071 2.09401,-10.7308 1.30886,-0.5237 10.99297,5.4961 13.0862,5.4961 2.09323,0 1.83177,-4.4495 2.61692,-3.9257 0.78516,0.5236 23.55469,23.2932 15.70313,49.9885 -7.85156,19.106 -23.5539,29.313 -46.58567,20.9378 1.30807,2.094 13.60911,12.301 26.95676,8.6367 13.34766,-3.6644 29.5737,-14.1328 27.74193,-40.3045 -1.83177,-26.1716 -10.46927,-29.8359 -11.77734,-33.7617 -1.30807,-3.9258 2.09479,1.0466 4.97318,2.094 2.87838,1.0474 -0.52371,-5.4968 -1.30886,-8.376 -0.78516,-2.8792 8.63672,6.0198 10.99219,6.8049 2.35546,0.7852 -5.4961,-21.4606 -7.85157,-23.0309 -2.35547,-1.5704 2.35547,0.5229 3.92578,1.0466 1.57032,0.5237 -14.39505,-24.3399 -17.79713,-24.3399 -3.40208,0 2.87838,-1.3088 4.71094,-1.3088 1.83255,0 -18.31927,-16.2269 -21.72213,-16.2269 -3.40287,0 7.32707,-4.188 8.37447,-4.4494 1.83256,0.2614 -23.29244,-13.3477 -45.80052,0.2614 -1.30885,-1.04582 10.6004,-9.28996 10.99219,-12.82316 0.13112,-0.91627 -3.925,-2.87916 -4.18724,-3.92578 -0.26224,-1.04661 6.28125,-4.18723 6.54271,-6.5427 -1.57032,-2.094 -4.44948,-1.30885 -6.01979,-1.83176 -0.3918,-1.96289 5.49687,-6.80495 4.97318,-8.89818 -0.39258,-1.17773 -4.71173,-1.57031 -5.75834,-0.78516 -1.04662,0.78516 2.74883,-5.49609 2.09401,-7.32786 -0.52292,-0.78516 -2.61692,-0.26146 -4.71094,0.26146 -1.30885,-0.26146 6.80495,-11.51589 5.23464,-13.0862 -1.57031,-1.57031 -23.55548,11.5151 -31.66849,26.17161 -8.11302,14.6565 -1.83099,26.43384 -2.87838,31.40623 -1.0474,4.9724 -2.35626,9.9456 -5.75834,9.9456 -3.40209,0 -11.25286,-5.2346 -13.87057,-7.8516 -2.61771,-2.6169 -3.14063,-4.4495 -6.80495,-5.49607 -3.66432,-1.04661 -12.0388,2.09397 -15.17943,2.35547 -3.14062,0.2615 -15.44167,-2.35547 -16.22682,-1.5703 -0.78516,0.7851 12.0388,5.4961 14.91797,7.0664 2.87917,1.5703 3.14141,3.6643 5.23464,4.9724 2.09322,1.3081 21.72213,7.0664 15.44088,15.1794 z m 76.68385,36.9024 c 6.28125,6.2812 48.67969,34.5468 48.67969,69.0937 0,34.5469 -30.88334,33.5011 -39.78151,32.4537 9.94557,8.3744 47.63307,6.8041 47.63307,-32.4537 0,-34.5469 -48.67969,-69.0937 -54.96094,-72.2344 -6.28125,-3.1406 -7.85156,-3.1406 -1.57031,3.1407 z"/></g></svg>